<svg xmlns="http://www.w3.org/2000/svg" xmlns:xlink="http://www.w3.org/1999/xlink" viewBox="0 0 548.54 149.61"><defs><style>.cls-1{stroke-miterlimit:10;stroke-width:0.25px;fill-rule:evenodd;fill:url(#linear-gradient);stroke:url(#linear-gradient-2);}.cls-2{fill:#368aec;}</style><linearGradient id="linear-gradient" x1="-4290.65" y1="-1238.83" x2="-4290.65" y2="-1238.01" gradientTransform="translate(777283.57 224402.25) scale(181.14)" gradientUnits="userSpaceOnUse"><stop offset="0.07" stop-color="#43a0f0"/><stop offset="0.68" stop-color="#2173ed"/></linearGradient><linearGradient id="linear-gradient-2" x1="74.81" y1="-2410.39" x2="74.81" y2="-2560" gradientTransform="matrix(1, 0, 0, -1, 0, -2410.39)" gradientUnits="userSpaceOnUse"><stop offset="0" stop-color="#43a0f0"/><stop offset="1" stop-color="#2779ec"/></linearGradient></defs><g id="Layer_2" data-name="Layer 2"><g id="Crop_Marks" data-name="Crop Marks"><g id="Page-1"><g id="Zgmund"><g id="Group"><path id="Shape" class="cls-1" d="M132.75,108.15A66.85,66.85,0,1,0,8,74.8C8,86,18.73,88,30.15,90.25c8.19,1.58,16.67,3.22,21.92,8.25,5.06,4.85,6.67,13.33,8.23,21.55,2.11,11.12,4.1,21.63,14.51,21.63A66.16,66.16,0,0,0,105,134.45a11.85,11.85,0,0,1,7.94-1.27l21.25,3.17-3-20.29A11.84,11.84,0,0,1,132.75,108.15ZM149.49,74.8a74.46,74.46,0,0,1-10,37.33,4.2,4.2,0,0,0-.51,2.62l3.47,23.69v.3a5.84,5.84,0,0,1-5.83,5.84h-.29l-25-3.74a4,4,0,0,0-2.45.42A74.67,74.67,0,1,1,71.86.19c1,0,2-.07,3-.07A74.78,74.78,0,0,1,149.49,74.8Z"/></g></g></g><path class="cls-2" d="M234.3,90.4a5.19,5.19,0,0,1-5.12,5.26H192.49a5.26,5.26,0,0,1-5.43-5.1V90.4a5.92,5.92,0,0,1,1.55-3.62l28.8-37.51H195.49a5.26,5.26,0,0,1-5.42-5.1V44a5.2,5.2,0,0,1,5.42-5.25h32.68a5.24,5.24,0,0,1,5.38,5.11V44a6.38,6.38,0,0,1-1.47,3.7L203.26,85.14H229a5.19,5.19,0,0,1,5.34,5Z"/><path class="cls-2" d="M291.12,57.9v33c0,13.45-8.2,21.29-22.07,21.29a29.49,29.49,0,0,1-18.36-5.95,5.32,5.32,0,0,1-2.41-4.22,5.22,5.22,0,0,1,5.19-5.26h.07a5.68,5.68,0,0,1,3.1,1.1,19.29,19.29,0,0,0,11.47,3.79c7.17,0,11.38-3.71,11.38-10.09v-2.3c-3,3.27-7.5,5.09-13,5.09-12,0-20.43-8.8-20.43-21.21S254.49,52,266.47,52c5.78,0,10.34,2,13.28,5.43a5.69,5.69,0,0,1,11.37.43ZM279.65,73c0-6.61-4.23-11-10.78-11s-11,4.58-11,11.13,4.66,11.46,11,11.46S279.65,79.88,279.65,73Z"/><path class="cls-2" d="M374.91,69.19V90.74a5.72,5.72,0,0,1-5.77,6,5.8,5.8,0,0,1-5.87-5.7V70.83c0-5.09-2.93-8.28-7.59-8.28s-7.84,3.28-7.84,8V90.74a5.72,5.72,0,0,1-5.77,6A5.8,5.8,0,0,1,336.2,91V70.83c0-5.09-3-8.28-7.59-8.28-4.74,0-7.84,3.28-7.84,8.28V90.74a5.72,5.72,0,0,1-5.78,6A5.79,5.79,0,0,1,309.11,91V57.9A5.69,5.69,0,0,1,314.62,52h.27a5.51,5.51,0,0,1,5.43,4.3A16.49,16.49,0,0,1,331.87,52c5.51,0,9.93,2.15,12.68,6.12A18.94,18.94,0,0,1,358.78,52C368.71,52,374.91,58.67,374.91,69.19Z"/><path class="cls-2" d="M392.06,76.87v-19a5.82,5.82,0,0,1,11.64,0V77.8A7.86,7.86,0,0,0,411.81,86c4.66,0,7.93-3.45,7.93-8.19V57.9a5.82,5.82,0,0,1,11.64,0v19c0,11.72-8.1,19.83-19.57,19.83C400.17,96.7,392.06,88.59,392.06,76.87Z"/><path class="cls-2" d="M488.19,69.19V90.74a5.67,5.67,0,0,1-5.78,6A5.76,5.76,0,0,1,476.64,91V70.74c0-4.91-3.19-8.27-7.93-8.27a7.88,7.88,0,0,0-8.11,8.27v20a5.72,5.72,0,0,1-5.77,6A5.79,5.79,0,0,1,449,91V57.9A5.69,5.69,0,0,1,454.47,52h.25a5.5,5.5,0,0,1,5.43,4.41,17.62,17.62,0,0,1,12-4.41C481.9,52,488.19,58.76,488.19,69.19Z"/><path class="cls-2" d="M548.54,35.91V90.83a5.63,5.63,0,0,1-5.69,5.87,5.76,5.76,0,0,1-5.69-5.44c-2.93,3.45-7.51,5.44-13,5.44-12,0-20.69-9.38-20.69-22.34S512.15,52,524.14,52c5.34,0,9.83,1.89,12.76,5.08V35.91A5.78,5.78,0,0,1,542.51,30h.25A5.72,5.72,0,0,1,548.54,35.91ZM537.07,74.36c0-7-4.41-11.81-10.77-11.81s-11,5-11,11.73c0,6.89,4.57,11.81,11,11.81s10.77-4.74,10.77-11.73Z"/></g></g></svg>